<svg xmlns="http://www.w3.org/2000/svg" xmlns:xlink="http://www.w3.org/1999/xlink" width="500" zoomAndPan="magnify" viewBox="0 0 375 374.999991" height="500" preserveAspectRatio="xMidYMid meet" version="1.0"><defs><g/><clipPath id="ed74691067"><path d="M 2.675781 2.675781 L 372.324219 2.675781 L 372.324219 373 L 2.675781 373 Z M 2.675781 2.675781 " clip-rule="nonzero"/></clipPath><clipPath id="954a1d4271"><path d="M 187.5 2.675781 C 85.425781 2.675781 2.675781 85.707031 2.675781 188.128906 C 2.675781 290.550781 85.425781 373.582031 187.5 373.582031 C 289.574219 373.582031 372.324219 290.550781 372.324219 188.128906 C 372.324219 85.707031 289.574219 2.675781 187.5 2.675781 " clip-rule="nonzero"/></clipPath><clipPath id="e7a2df312f"><path d="M 2.679688 2.675781 L 372.425781 2.675781 L 372.425781 373.925781 L 2.679688 373.925781 Z M 2.679688 2.675781 " clip-rule="nonzero"/></clipPath><clipPath id="013bf44f23"><path d="M 187.550781 2.675781 C 85.449219 2.675781 2.679688 85.785156 2.679688 188.300781 C 2.679688 290.820312 85.449219 373.925781 187.550781 373.925781 C 289.65625 373.925781 372.425781 290.820312 372.425781 188.300781 C 372.425781 85.785156 289.65625 2.675781 187.550781 2.675781 " clip-rule="nonzero"/></clipPath></defs><g clip-path="url(#ed74691067)"><g clip-path="url(#954a1d4271)"><path fill="#5d5d5d" d="M 2.675781 2.675781 L 372.324219 2.675781 L 372.324219 372.324219 L 2.675781 372.324219 Z M 2.675781 2.675781 " fill-opacity="1" fill-rule="nonzero"/></g></g><g clip-path="url(#e7a2df312f)"><g clip-path="url(#013bf44f23)"><path stroke-linecap="butt" transform="matrix(0.750214, 0, 0, 0.750711, 2.679236, 2.67703)" fill="none" stroke-linejoin="miter" d="M 246.425094 -0.00166394 C 110.328503 -0.00166394 0.000602089 110.705907 0.000602089 247.263976 C 0.000602089 383.827249 110.328503 494.529616 246.425094 494.529616 C 382.526892 494.529616 492.854793 383.827249 492.854793 247.263976 C 492.854793 110.705907 382.526892 -0.00166394 246.425094 -0.00166394 " stroke="#414754" stroke-width="20" stroke-opacity="1" stroke-miterlimit="4"/></g></g><g fill="#ffffff" fill-opacity="1"><g transform="translate(71.009062, 250.927014)"><g><path d="M 14.171875 -126.5 L 100.25 -126.5 L 100.171875 -105.15625 L 39.890625 -105.15625 L 39.890625 -73.40625 L 92.125 -73.40625 L 92.125 -52.484375 L 39.890625 -52.484375 L 39.890625 0 L 14.171875 0 Z M 14.171875 -126.5 "/></g></g></g><g fill="#ffffff" fill-opacity="1"><g transform="translate(178.34754, 250.927014)"><g><path d="M 65.703125 -128.25 C 75.203125 -128.25 83.671875 -126.335938 91.109375 -122.515625 C 98.546875 -118.703125 104.550781 -113.5 109.125 -106.90625 C 113.707031 -100.3125 116.410156 -92.875 117.234375 -84.59375 L 90.453125 -84.59375 C 89.640625 -88.96875 88.15625 -92.859375 86 -96.265625 C 83.84375 -99.679688 81.015625 -102.363281 77.515625 -104.3125 C 74.015625 -106.269531 69.8125 -107.25 64.90625 -107.25 C 59.019531 -107.25 53.945312 -105.820312 49.6875 -102.96875 C 45.4375 -100.113281 42.171875 -95.503906 39.890625 -89.140625 C 37.617188 -82.785156 36.484375 -74.390625 36.484375 -63.953125 C 36.484375 -48.203125 39.003906 -36.8125 44.046875 -29.78125 C 49.085938 -22.757812 56.039062 -19.25 64.90625 -19.25 C 69.8125 -19.25 74.015625 -20.367188 77.515625 -22.609375 C 81.015625 -24.859375 83.84375 -27.832031 86 -31.53125 C 88.15625 -35.238281 89.640625 -39.304688 90.453125 -43.734375 L 117.234375 -43.734375 C 116.472656 -37.734375 115.015625 -32.003906 112.859375 -26.546875 C 110.703125 -21.097656 107.640625 -16.242188 103.671875 -11.984375 C 99.703125 -7.722656 94.597656 -4.367188 88.359375 -1.921875 C 82.117188 0.523438 74.566406 1.75 65.703125 1.75 C 53.921875 1.75 43.742188 -0.988281 35.171875 -6.46875 C 26.597656 -11.957031 19.992188 -19.65625 15.359375 -29.5625 C 10.722656 -39.476562 8.40625 -51.054688 8.40625 -64.296875 C 8.40625 -77.597656 10.707031 -89.015625 15.3125 -98.546875 C 19.914062 -108.085938 26.503906 -115.421875 35.078125 -120.546875 C 43.648438 -125.679688 53.859375 -128.25 65.703125 -128.25 Z M 65.703125 -128.25 "/></g></g></g></svg>